<svg width="40" height="40" viewBox="0 0 40 40" fill="none" xmlns="http://www.w3.org/2000/svg">
  <path fill="#fff" fill-rule="evenodd" clip-rule="evenodd" d="M20 0C8.91429 0 0 8.91429 0 20C0 30.9714 8.91429 40 20
    40C30.9714 40 40 31.0857 40 20C39.8857 8.91429 30.9714 0 20 0Z">
  </path>
  <path fill="#0F2954" fill-rule="evenodd" clip-rule="evenodd" d="M23.4286 18.1714C24.6857 17.6 25.4857 16.8 26.0572
    16.2285C27.0857 15.0857 27.4286 13.7142 27.4286 12.3428C27.4286 11.3142 27.0857 9.14281 25.2572 7.6571C24 6.62853
    22.8572 6.17139 20.1143 6.17139H18.7429H18.6286H12.9143V32.9142H29.0286V27.7714C29.0286 22.9714 27.5429 19.6571
    23.4286 18.1714ZM25.3714 31.5428H22.4V22.6285H19.0857V31.5428H16.4572V7.54281H19.0857C20.1143 7.54281 21.6 7.77139
    22.6286 9.02853C23.2 9.71424 23.5429 10.6285 23.6572 11.4285H18.9714V12.8H23.6572C23.6572 13.6 23.4286 14.6285 22.6286
    15.6571C21.9429 16.5714 20.6857 17.3714 18.9714 17.3714V18.7428C23.5429 18.7428 25.2572 21.7142 25.2572
    27.3142V31.5428H25.3714Z">
  </path>
  </svg>